<?xml version="1.0" encoding="utf-8"?>
<!-- Generator: Adobe Illustrator 19.1.0, SVG Export Plug-In . SVG Version: 6.00 Build 0)  -->
<svg version="1.1" id="Слой_1" xmlns="http://www.w3.org/2000/svg" xmlns:xlink="http://www.w3.org/1999/xlink" x="0px" y="0px"
	 viewBox="0 0 539 124" style="enable-background:new 0 0 539 124;" xml:space="preserve">
<path d="M53.9,44.2h19.6c0,0,3.7-46-33.8-44.1c0,0-37-1.2-39.5,55.9c0,0-5,66.7,34,67.9c0,0,19.9,1.8,27.1-15.2l3.2,13.4h10.2
	l0-62.9H39v18.5h14.4c0,0,0.3,1.8,0.3,6.5c0,11.9-5.7,20.4-14.7,19.5c-6.6-0.7-14.7-8.3-14.7-41.7c0,0-1.9-40.9,16.6-40.9
	C40.9,21,55.8,20,53.9,44.2 M103,1.9H78.7v120.2h47.7v-21.7H103L103,1.9z M182.8,1.9h-25.5l-28.5,120.2H150l5.9-26.3H181l4.7,26.3
	h24.1L182.8,1.9L182.8,1.9z M158.8,77.1l9.6-45.3l9.9,45.1L158.8,77.1z"/>
<path d="M208.4,122.1V1.9h36L258,81.4l16.4-79.5h33v120.2h-24.1V36l-19.6,86h-14.9l-19.6-86.3v86.3L208.4,122.1L208.4,122.1z
	 M386.2,61.9c0,60.1-31.7,62.1-37.8,62.1c-6,0-37.8-1.8-37.8-62s31.7-62,37.8-62C354.5,0,386.2,1.7,386.2,61.9z M337.2,46
	c0,0-0.1,11.8-0.1,16.5c0,4.7,0.1,16,0.1,16c0,13.3,3,25,11.2,25c8.2,0,11.2-11.8,11.2-25c0,0,0.1-11.2,0.1-16S359.5,46,359.5,46
	c0-13.3-3-25-11.2-25C340.2,21,337.2,32.8,337.2,46z M428.9,124c33.9,0,34-27.2,34-42.4V1.9h-23.3v88.4c0,5.4-0.8,13.3-11.7,13.3h-2
	c-10.9,0-11.7-7.9-11.7-13.3V1.9h-23.4v79.7c0,15.1,0.1,42.4,34,42.4L428.9,124L428.9,124z M521.6,70.8c16-10.9,16.1-23,16.1-35.2
	c0-25.1-16.9-33.7-34-33.7h-35.3v120.2H492V75.9h8.4l13.7,46.1H539L521.6,70.8L521.6,70.8z M492,55.5V21c8.6-1.3,21.4-1,21.4,18.3
	C513.4,48.4,509.4,58.1,492,55.5"/>
</svg>
