<svg xmlns="http://www.w3.org/2000/svg" viewBox="0 0 90 28"><g fill-rule="evenodd" stroke-linejoin="round" stroke-miterlimit="1.414" clip-rule="evenodd" fill="#fff"><path d="M62.147 18.369a3.983 3.983 0 0 1-.124.139c-2.036 2.144-4.131 2.429-5.719 2.429a6.715 6.715 0 0 1-6.712-6.713 6.715 6.715 0 0 1 6.712-6.712c2.625 0 4.9 1.51 6.003 3.709.163.335.815 1.859.584 4.3H52.405c.492 1.648 2.07 2.837 3.899 2.837 1.914-.001 3.263-.818 4.173-1.679zm-1.873-5.359c-.416-1.589-1.921-2.886-3.97-2.886-2.05 0-3.542 1.27-3.937 2.886zM74.961 10.351H70.55v10.258h-2.653V10.351h-4.411V7.84h11.475zM79.03 20.609h-2.167V7.84h2.609v8.525l7.409-8.525h2.167v12.769h-2.609v-8.348z"/><path fill-rule="nonzero" d="M44.395 18.098h-5.832c1.044-.953 1.355-2.86 1.336-4.959l-.001-.225h.001v-2.563h4.496zm4.316 0h-1.708V7.84H37.29v5.074h.002l-.001.005.004.698c.008 1.172-.003 4.461-2.462 4.475l-.485.006v5.371h2.609v-2.86h9.145v2.86h2.609v-2.858z"/><path fill="#ff9e00" fill-rule="nonzero" d="M18.211 14c0 2.322-1.889 4.211-4.211 4.211S9.789 16.322 9.789 14 11.678 9.789 14 9.789s4.211 1.889 4.211 4.211M14 0C6.28 0 0 6.28 0 14s6.28 14 14 14a13.92 13.92 0 0 0 7.886-2.435l.04-.028-1.886-2.192-.032.02A11.077 11.077 0 0 1 14 25.13C7.863 25.13 2.87 20.137 2.87 14S7.863 2.87 14 2.87 25.13 7.863 25.13 14c0 .795-.089 1.6-.262 2.392-.352 1.445-1.364 1.887-2.123 1.829-.764-.062-1.658-.606-1.664-1.938V14c0-3.905-3.176-7.081-7.081-7.081S6.919 10.095 6.919 14s3.176 7.081 7.081 7.081a7.022 7.022 0 0 0 5.017-2.09 4.55 4.55 0 0 0 3.498 2.091 4.733 4.733 0 0 0 3.218-.943c.839-.638 1.466-1.559 1.812-2.666.055-.179.157-.588.157-.591l.003-.015c.204-.888.295-1.773.295-2.867 0-7.72-6.28-14-14-14"/></g></svg>
