<svg xmlns="http://www.w3.org/2000/svg" viewBox="0 0 16 16"><g fill="none" fill-rule="evenodd"><path fill="#ccc" d="M10 0c1.104 0 2 .896 2 2h2c1.104 0 2 .896 2 2v10c0 1.104-.896 2-2 2H2c-1.104 0-2-.896-2-2V4c0-1.104.896-2 2-2h2c0-1.104.896-2 2-2h4z"/><path fill="#FFF" d="M8 5c2.208 0 4 1.792 4 4s-1.792 4-4 4-4-1.792-4-4 1.792-4 4-4z"/><path fill="#ccc" d="M8 7c1.104 0 2 .896 2 2s-.896 2-2 2-2-.896-2-2 .896-2 2-2z"/><path fill="#FFF" d="M13 12c.552 0 1 .448 1 1s-.448 1-1 1-1-.448-1-1 .448-1 1-1z"/></g></svg>
