<svg xmlns="http://www.w3.org/2000/svg" viewBox="0 0 89 28"><g fill="#fff" fill-rule="evenodd" stroke-linejoin="round" stroke-miterlimit="1.414" clip-rule="evenodd"><path d="M47.799 20.609h-2.608v-1.397c-.935 1.059-2.582 1.725-4.131 1.725a6.716 6.716 0 0 1-6.712-6.713 6.716 6.716 0 0 1 6.712-6.712c1.549 0 3.109.584 4.131 1.615V7.84h2.608zm-6.654-10.414c2.284 0 4.081 1.634 4.081 4.029s-1.797 4.044-4.081 4.044-4.02-1.759-4.02-4.044c0-2.284 1.736-4.029 4.02-4.029zm17.141 10.414h-7.588V7.84h7.087a3.491 3.491 0 0 1 3.485 3.49c0 1.103-.461 1.823-1.015 2.44 1.119.65 1.717 1.776 1.717 3.034 0 2.034-1.652 3.805-3.686 3.805zm-.528-5.393h-4.474v2.882h4.474a1.442 1.442 0 0 0 0-2.882zm-.373-4.865h-4.101v2.409h4.101a1.205 1.205 0 0 0 0-2.409zm16.664 0h-4.411v10.258h-2.654V10.351h-4.411V7.84h11.476zm7.258-2.839a6.716 6.716 0 0 1 6.712 6.712 6.716 6.716 0 0 1-6.712 6.713 6.715 6.715 0 0 1-6.712-6.713 6.715 6.715 0 0 1 6.712-6.712zm0 2.608a4.106 4.106 0 0 1 4.104 4.104 4.106 4.106 0 0 1-4.104 4.105 4.106 4.106 0 0 1-4.105-4.105 4.106 4.106 0 0 1 4.105-4.104z"/><path fill="#ff9e00" fill-rule="nonzero" d="M18.211 14c0 2.322-1.889 4.211-4.211 4.211S9.789 16.322 9.789 14 11.678 9.789 14 9.789s4.211 1.889 4.211 4.211M14 0C6.28 0 0 6.28 0 14s6.28 14 14 14a13.92 13.92 0 0 0 7.886-2.435l.04-.028-1.886-2.192-.032.02A11.077 11.077 0 0 1 14 25.13C7.863 25.13 2.87 20.137 2.87 14S7.863 2.87 14 2.87 25.13 7.863 25.13 14c0 .795-.089 1.6-.262 2.392-.352 1.445-1.364 1.887-2.123 1.829-.764-.062-1.658-.606-1.664-1.938V14c0-3.905-3.176-7.081-7.081-7.081S6.919 10.095 6.919 14s3.176 7.081 7.081 7.081a7.022 7.022 0 0 0 5.017-2.09 4.55 4.55 0 0 0 3.498 2.091 4.733 4.733 0 0 0 3.218-.943c.839-.638 1.466-1.559 1.812-2.666.055-.179.157-.588.157-.591l.003-.015c.204-.888.295-1.773.295-2.867 0-7.72-6.28-14-14-14"/></g></svg>
