<svg xmlns="http://www.w3.org/2000/svg" viewBox="0 0 213 28"><g fill-rule="evenodd" stroke-linejoin="round" stroke-miterlimit="1.414" clip-rule="evenodd" fill="#fff"><path d="M62.302 18.369a3.983 3.983 0 0 1-.124.139c-2.036 2.144-4.13 2.429-5.719 2.429a6.716 6.716 0 0 1-6.712-6.713 6.716 6.716 0 0 1 6.712-6.712 6.716 6.716 0 0 1 6.004 3.709c.162.335.815 1.859.583 4.3H52.561c.491 1.648 2.07 2.837 3.898 2.837 1.914-.001 3.263-.818 4.173-1.679zm-1.873-5.359c-.416-1.589-1.92-2.886-3.97-2.886-2.049 0-3.542 1.27-3.937 2.886zM143.458 7.84h2.168l5.236 6.862 5.237-6.862h2.167v12.769h-2.609v-8.098l-4.795 6.405-4.795-6.405v8.098h-2.609zM166.989 7.512a6.716 6.716 0 0 1 6.712 6.712 6.716 6.716 0 0 1-6.712 6.713 6.715 6.715 0 0 1-6.712-6.713 6.715 6.715 0 0 1 6.712-6.712zm0 2.608a4.106 4.106 0 0 1 4.104 4.104 4.106 4.106 0 0 1-4.104 4.105 4.106 4.106 0 0 1-4.105-4.105 4.106 4.106 0 0 1 4.105-4.104zM200.048 10.351h-4.411v10.258h-2.654V10.351h-4.411V7.84h11.476zM204.558 11.716h3.529c2.383 0 4.317 2.052 4.317 4.435s-1.934 4.458-4.317 4.458h-6.138V7.84h2.609zm3.218 2.508h-1.087c-.033 0-.065.001-.097.003h-2.057v3.871h3.241c1.069 0 1.858-.868 1.858-1.937s-.789-1.936-1.858-1.937zM187.551 18.159a6.776 6.776 0 0 1-5.473 2.778 6.715 6.715 0 0 1-6.712-6.713 6.715 6.715 0 0 1 6.712-6.712c2.039 0 3.902.912 5.134 2.349l-2.067 1.597c-.751-.822-1.766-1.338-3.067-1.338-2.265 0-4.047 1.839-4.047 4.104 0 2.266 1.782 4.105 4.047 4.105 1.487 0 2.639-.684 3.383-1.731zM96.194 20.609h-2.167V7.84h2.608v8.525l7.41-8.525h2.167v12.769h-2.609v-8.348zM130.541 20.609h-2.167V7.84h2.609v8.525l7.409-8.525h2.167v12.769h-2.608v-8.348zM88.189 20.609h-7.588V7.84h7.087a3.49 3.49 0 0 1 3.484 3.49c0 1.104-.46 1.823-1.014 2.44 1.119.65 1.716 1.776 1.716 3.034 0 2.034-1.651 3.805-3.685 3.805zm-.528-5.393h-4.474v2.882h4.474a1.441 1.441 0 0 0 0-2.882zm-.373-4.865h-4.101v2.409h4.101a1.205 1.205 0 1 0 0-2.409z"/><path fill-rule="nonzero" d="M73.888 18.098h-5.832c1.045-.953 1.355-2.86 1.336-4.959l-.001-.225h.001v-2.563h4.496zm4.316 0h-1.707V7.84h-9.714v5.074h.002v.005l.003.698c.008 1.172-.003 4.461-2.462 4.475l-.485.006v5.371h2.609v-2.86h9.145v2.86h2.609v-2.858z"/><path d="M38.361 15.293v5.316h-2.609V7.84h2.609v4.942h6.429V7.84h2.609v12.769H44.79v-5.316zM114.308 12.919h1.678V7.84h2.608v5.079h1.684l2.931-5.079h2.888l-3.511 6.086 4.021 6.683h-3.216l-3.055-5.182h-1.742v5.182h-2.608v-5.182h-1.736l-3.055 5.182h-3.216L112 13.926l-3.511-6.086h2.887z"/><path fill="#ff9e00" fill-rule="nonzero" d="M18.211 14c0 2.322-1.889 4.211-4.211 4.211S9.789 16.322 9.789 14 11.678 9.789 14 9.789s4.211 1.889 4.211 4.211M14 0C6.28 0 0 6.28 0 14s6.28 14 14 14a13.92 13.92 0 0 0 7.886-2.435l.04-.028-1.886-2.192-.032.02A11.077 11.077 0 0 1 14 25.13C7.863 25.13 2.87 20.137 2.87 14S7.863 2.87 14 2.87 25.13 7.863 25.13 14c0 .795-.089 1.6-.262 2.392-.352 1.445-1.364 1.887-2.123 1.829-.764-.062-1.658-.606-1.664-1.938V14c0-3.905-3.176-7.081-7.081-7.081S6.919 10.095 6.919 14s3.176 7.081 7.081 7.081a7.022 7.022 0 0 0 5.017-2.09 4.55 4.55 0 0 0 3.498 2.091 4.733 4.733 0 0 0 3.218-.943c.839-.638 1.466-1.559 1.812-2.666.055-.179.157-.588.157-.591l.003-.015c.204-.888.295-1.773.295-2.867 0-7.72-6.28-14-14-14"/></g></svg>
