<svg xmlns="http://www.w3.org/2000/svg" viewBox="0 0 111 28"><g fill-rule="evenodd" stroke-linejoin="round" stroke-miterlimit="1.414" clip-rule="evenodd" fill="#fff"><path fill-rule="nonzero" d="M44.395 18.098h-5.832c1.044-.953 1.355-2.86 1.336-4.959l-.001-.225h.001v-2.563h4.496zm4.316 0h-1.708V7.84H37.29v5.074h.002l-.001.005.004.698c.008 1.172-.003 4.461-2.462 4.475l-.485.006v5.371h2.609v-2.86h9.145v2.86h2.609v-2.858z"/><path d="M56.306 7.512a6.715 6.715 0 0 1 6.712 6.712 6.715 6.715 0 0 1-6.712 6.713 6.716 6.716 0 0 1-6.712-6.713 6.716 6.716 0 0 1 6.712-6.712zm0 2.608a4.106 4.106 0 0 1 4.105 4.104 4.106 4.106 0 0 1-4.105 4.105 4.106 4.106 0 0 1-4.104-4.105 4.106 4.106 0 0 1 4.104-4.104zM103.246 7.512a6.715 6.715 0 0 1 6.712 6.712 6.715 6.715 0 0 1-6.712 6.713 6.716 6.716 0 0 1-6.712-6.713 6.716 6.716 0 0 1 6.712-6.712zm0 2.608a4.106 4.106 0 0 1 4.105 4.104 4.106 4.106 0 0 1-4.105 4.105 4.106 4.106 0 0 1-4.104-4.105 4.106 4.106 0 0 1 4.104-4.104z"/><path fill-rule="nonzero" d="M72.015 18.358a4.136 4.136 0 0 1-3.716-2.323s-.156-.31-.237-.601a4.134 4.134 0 1 1 3.953 2.924m-4.423-8.431c.001-1.087.632-2.715 1.701-3.706 1.284-1.191 2.656-1.469 4.545-1.882 1.041-.227 2.317-.569 3.393-1.106L76.245.821c-.783.319-1.704.521-2.68.734-2.114.462-4.511.986-6.231 2.947-1.416 1.614-2.147 3.991-2.283 6.692-.113 2.233.147 4.424.903 5.913a6.714 6.714 0 0 0 6.061 3.83 6.715 6.715 0 0 0 6.712-6.713c0-3.704-2.773-6.712-6.477-6.712-2.519 0-4.036 1.366-4.658 2.415z"/><path d="M81.075 25.109l2.609-.004v-5.893c.935 1.059 2.582 1.725 4.131 1.725a6.716 6.716 0 0 0 6.712-6.713 6.716 6.716 0 0 0-6.712-6.712c-1.549 0-3.109.584-4.131 1.615V7.84h-2.609zm6.655-14.914c-2.285 0-4.082 1.634-4.082 4.029s1.797 4.044 4.082 4.044c2.284 0 4.02-1.759 4.02-4.044 0-2.284-1.736-4.029-4.02-4.029z"/><path fill="#ff9e00" fill-rule="nonzero" d="M18.211 14c0 2.322-1.889 4.211-4.211 4.211S9.789 16.322 9.789 14 11.678 9.789 14 9.789s4.211 1.889 4.211 4.211M14 0C6.28 0 0 6.28 0 14s6.28 14 14 14a13.92 13.92 0 0 0 7.886-2.435l.04-.028-1.886-2.192-.032.02A11.077 11.077 0 0 1 14 25.13C7.863 25.13 2.87 20.137 2.87 14S7.863 2.87 14 2.87 25.13 7.863 25.13 14c0 .795-.089 1.6-.262 2.392-.352 1.445-1.364 1.887-2.123 1.829-.764-.062-1.658-.606-1.664-1.938V14c0-3.905-3.176-7.081-7.081-7.081S6.919 10.095 6.919 14s3.176 7.081 7.081 7.081a7.022 7.022 0 0 0 5.017-2.09 4.55 4.55 0 0 0 3.498 2.091 4.733 4.733 0 0 0 3.218-.943c.839-.638 1.466-1.559 1.812-2.666.055-.179.157-.588.157-.591l.003-.015c.204-.888.295-1.773.295-2.867 0-7.72-6.28-14-14-14"/></g></svg>
