<svg clip-rule="evenodd" fill-rule="evenodd" stroke-linejoin="round" stroke-miterlimit="1.41421" viewBox="0 0 148 28" xmlns="http://www.w3.org/2000/svg" xmlns:xlink="http://www.w3.org/1999/xlink"><clipPath id="a"><path clip-rule="evenodd" d="m0 0h148v28h-148z"/></clipPath><path d="m0 0h148v28h-148z" fill="none"/><g clip-path="url(#a)"><g fill="#fff"><path d="m68.385 7.512c3.705 0 6.713 3.008 6.713 6.712 0 3.705-3.008 6.713-6.713 6.713-3.704 0-6.712-3.008-6.712-6.713 0-3.704 3.008-6.712 6.712-6.712zm0 2.608c2.266 0 4.105 1.839 4.105 4.104 0 2.266-1.839 4.105-4.105 4.105-2.265 0-4.104-1.839-4.104-4.105 0-2.265 1.839-4.104 4.104-4.104z"/><path d="m99.616 7.512c3.705 0 6.713 3.008 6.713 6.712 0 3.705-3.008 6.713-6.713 6.713-3.704 0-6.712-3.008-6.712-6.713 0-3.704 3.008-6.712 6.712-6.712zm0 2.608c2.266 0 4.105 1.839 4.105 4.104 0 2.266-1.839 4.105-4.105 4.105-2.265 0-4.104-1.839-4.104-4.105 0-2.265 1.839-4.104 4.104-4.104z"/><path d="m116.264 20.609h-7.587v-7.491-5.278h7.087c1.923 0 3.484 1.567 3.484 3.49 0 1.104-.46 1.823-1.014 2.44 1.118.65 1.716 1.776 1.716 3.034 0 2.034-1.652 3.805-3.686 3.805zm-.528-5.393h-4.473v2.882h4.473c.795 0 1.441-.646 1.441-1.441s-.646-1.441-1.441-1.441zm-.372-4.865h-4.101v2.409h4.101c.665 0 1.204-.539 1.204-1.204s-.539-1.205-1.204-1.205z"/><path d="m124.711 11.716h3.529c2.383 0 4.317 2.052 4.317 4.435s-1.934 4.457-4.317 4.457h-3.529v.001h-2.609v-.001-8.813-3.955h2.609zm3.218 2.508h-1.087c-.033 0-.065.001-.097.003h-2.057v3.871h3.241c1.069 0 1.858-.868 1.858-1.937s-.789-1.937-1.858-1.937z"/><path d="m146.643 18.369c-.039.046-.082.094-.124.139-2.036 2.144-4.13 2.429-5.719 2.429-3.704 0-6.712-3.008-6.712-6.713 0-3.704 3.008-6.712 6.712-6.712 2.625 0 4.901 1.51 6.003 3.709.163.335.816 1.859.584 4.3h-10.486c.492 1.648 2.071 2.837 3.899 2.837 1.914-.001 3.263-.818 4.173-1.679zm-1.873-5.359c-.416-1.589-1.92-2.886-3.97-2.886-2.049 0-3.542 1.27-3.937 2.886z"/><path d="m77.446 25.109 2.608-.004v-5.893c.935 1.059 2.582 1.725 4.131 1.725 3.704 0 6.712-3.008 6.712-6.713 0-3.704-3.008-6.712-6.712-6.712-1.549 0-3.109.584-4.131 1.615v-1.287h-2.608zm6.654-14.914c-2.284 0-4.081 1.634-4.081 4.029s1.797 4.044 4.081 4.044 4.02-1.759 4.02-4.044c0-2.284-1.736-4.029-4.02-4.029z"/><path d="m43.581 13.746c.365-.232 1.518-1.382 1.199-3.076-.402-2.139-2.21-3.16-4.81-3.158-.195 0-.394.006-.597.018-1.834.105-3.303.8-4.405 1.769l1.342 1.743c.999-.749 2.273-1.076 3.707-1.054 1.435.022 2.205.7 2.173 1.375-.065 1.371-1.583 1.555-2.079 1.555l-.526.001h-2.036v2.322h2.487.422c1.841 0 2.148 1.032 2.071 1.65-.09.722-.791 1.453-3.074 1.453-2.082 0-3.504-1.216-3.662-1.358l-1.445 1.832c1.458 1.369 3.129 2.118 5.27 2.118.596 0 3.528.064 5.124-1.95.412-.519.632-1.086.709-1.653.257-2.251-1.146-3.286-1.87-3.587z"/><path d="m56.474 18.098h-5.831c1.044-.953 1.354-2.86 1.335-4.959l-.001-.225h.001v-2.563h4.496zm4.316 0h-1.707v-10.258h-9.714v5.074h.002v.005l.004.698c.007 1.172-.004 4.461-2.463 4.475-.032.001-.485.006-.485.006v5.371h2.609v-2.86h9.146v2.86h2.608v-2.858z" fill-rule="nonzero"/></g><path d="m18.211 14c0 2.322-1.889 4.211-4.211 4.211s-4.211-1.889-4.211-4.211 1.889-4.211 4.211-4.211 4.211 1.889 4.211 4.211m-4.211-14c-7.72 0-14 6.28-14 14s6.28 14 14 14c2.828 0 5.555-.842 7.886-2.435l.04-.028-1.886-2.192-.032.02c-1.794 1.155-3.872 1.765-6.008 1.765-6.137 0-11.13-4.993-11.13-11.13s4.993-11.13 11.13-11.13 11.13 4.993 11.13 11.13c0 .795-.089 1.6-.262 2.392-.352 1.445-1.364 1.887-2.123 1.829-.764-.062-1.658-.606-1.664-1.938v-1.086-1.197c0-3.905-3.176-7.081-7.081-7.081s-7.081 3.176-7.081 7.081 3.176 7.081 7.081 7.081c1.897 0 3.676-.741 5.017-2.09.78 1.214 2.051 1.975 3.498 2.091.124.01.251.015.376.015 1.019 0 2.028-.341 2.842-.958.839-.638 1.466-1.559 1.812-2.666.055-.179.157-.588.157-.591l.003-.015c.204-.888.295-1.773.295-2.867 0-7.72-6.28-14-14-14" fill="#ff9e00" fill-rule="nonzero"/></g></svg>