<svg xmlns="http://www.w3.org/2000/svg" viewBox="0 0 93 28"><g fill-rule="evenodd" stroke-linejoin="round" stroke-miterlimit="1.414" clip-rule="evenodd" fill="#fff"><path fill-rule="nonzero" d="M46.939 7.84h-9.846l.001.005c.002.517-.127 6.472-.217 8.185-.083 1.579-.396 2.123-2.081 2.235a15.46 15.46 0 0 1-.436.003l-.012 2.341c.04.008 1.924.29 3.16-.447 1.585-.945 1.9-2.638 1.972-3.995.054-1.039.125-3.864.171-5.816h4.683l-.003 10.258h2.608z"/><path d="M61.843 18.399c-.04.046-.082.094-.125.139-2.036 2.144-4.13 2.428-5.718 2.428a6.714 6.714 0 0 1-6.712-6.712A6.715 6.715 0 0 1 56 7.542c2.625 0 4.9 1.51 6.003 3.709.163.335.815 1.858.583 4.3H52.101c.491 1.648 2.07 2.837 3.899 2.837 1.914-.001 3.263-.819 4.172-1.679zm-1.874-5.359c-.415-1.589-1.92-2.886-3.969-2.886-2.05 0-3.542 1.27-3.937 2.886z"/><path fill-rule="nonzero" d="M73.428 18.098h-5.831c1.044-.953 1.354-2.86 1.335-4.959l-.001-.225h.001v-2.563h4.496zm4.316 0h-1.707V7.84h-9.713v5.074h.001v.005l.004.698c.007 1.172-.004 4.461-2.463 4.475l-.484.006v5.371h2.608v-2.86h9.146v2.86h2.608v-2.858z"/><path d="M82.318 20.609H80.15V7.84h2.609v8.525l7.409-8.525h2.168v12.769h-2.609v-8.348z"/><path fill="#ff9e00" fill-rule="nonzero" d="M18.211 14c0 2.322-1.889 4.211-4.211 4.211S9.789 16.322 9.789 14 11.678 9.789 14 9.789s4.211 1.889 4.211 4.211M14 0C6.28 0 0 6.28 0 14s6.28 14 14 14a13.92 13.92 0 0 0 7.886-2.435l.04-.028-1.886-2.192-.032.02A11.077 11.077 0 0 1 14 25.13C7.863 25.13 2.87 20.137 2.87 14S7.863 2.87 14 2.87 25.13 7.863 25.13 14c0 .795-.089 1.6-.262 2.392-.352 1.445-1.364 1.887-2.123 1.829-.764-.062-1.658-.606-1.664-1.938V14c0-3.905-3.176-7.081-7.081-7.081S6.919 10.095 6.919 14s3.176 7.081 7.081 7.081a7.022 7.022 0 0 0 5.017-2.09 4.55 4.55 0 0 0 3.498 2.091 4.733 4.733 0 0 0 3.218-.943c.839-.638 1.466-1.559 1.812-2.666.055-.179.157-.588.157-.591l.003-.015c.204-.888.295-1.773.295-2.867 0-7.72-6.28-14-14-14"/></g></svg>
