<svg clip-rule="evenodd" fill-rule="evenodd" stroke-linejoin="round" stroke-miterlimit="1.41421" viewBox="0 0 121 28" xmlns="http://www.w3.org/2000/svg" xmlns:xlink="http://www.w3.org/1999/xlink"><clipPath id="a"><path clip-rule="evenodd" d="m0 0h121v28h-121z"/></clipPath><path d="m0 0h121v28h-121z" fill="none"/><g clip-path="url(#a)"><g fill="#fff"><path d="m38.365 20.609h-2.613v-7.197-10.822h2.609v6.51c.975-1.129 2.362-1.588 3.543-1.588 3.679 0 5.647 2.348 5.647 5.727v7.37h-2.612v-7.311c0-1.888-1.29-3.182-3.104-3.182-1.978 0-3.47 1.473-3.47 3.287z"/><path d="m53.104 20.609h-2.654v-12.769h2.654zm-1.327-18.467c.989 0 1.792.803 1.792 1.792s-.803 1.792-1.792 1.792-1.791-.803-1.791-1.792.802-1.792 1.791-1.792z"/><path d="m64.48 15.068v-2.511h-7.523v2.511z"/><path d="m76.952 17.699c-1.207.676-2.313.63-2.313.63v-.001c-.035.001-.071.002-.107.002-.837 0-1.457-.22-1.896-.673-.726-.75-.85-2.05-.836-2.481.001-.019.001-.037.001-.056v-4.769h4.993v-2.511h-4.993v-5.25h-2.606v5.25h-2.586v2.511h2.586v4.907c-.087 2.765 1.524 5.679 5.337 5.679 1.666 0 2.942-.595 3.74-1.115z" fill-rule="nonzero"/><path d="m91.573 18.369c-.04.046-.082.094-.125.139-2.036 2.144-4.13 2.429-5.718 2.429-3.705 0-6.712-3.008-6.712-6.713 0-3.704 3.007-6.712 6.712-6.712 2.625 0 4.9 1.51 6.003 3.709.163.335.815 1.859.583 4.3h-10.485c.491 1.648 2.07 2.837 3.899 2.837 1.914-.001 3.263-.818 4.172-1.679zm-1.874-5.359c-.415-1.589-1.92-2.886-3.969-2.886-2.05 0-3.542 1.27-3.937 2.886z"/><path d="m106.558 18.159c-1.221 1.682-3.238 2.778-5.473 2.778-3.705 0-6.712-3.008-6.712-6.713 0-3.704 3.007-6.712 6.712-6.712 2.039 0 3.902.912 5.134 2.349l-2.067 1.597c-.751-.822-1.766-1.338-3.067-1.338-2.265 0-4.047 1.839-4.047 4.104 0 2.266 1.782 4.105 4.047 4.105 1.487 0 2.639-.684 3.383-1.731z"/><path d="m111.178 20.609h-2.613v-7.197-10.822h2.608v6.51c.976-1.129 2.362-1.588 3.544-1.588 3.678 0 5.647 2.348 5.647 5.727v7.37h-2.613v-7.311c0-1.888-1.29-3.182-3.104-3.182-1.977 0-3.469 1.473-3.469 3.287z"/></g><path d="m18.211 14c0 2.322-1.889 4.211-4.211 4.211s-4.211-1.889-4.211-4.211 1.889-4.211 4.211-4.211 4.211 1.889 4.211 4.211m-4.211-14c-7.72 0-14 6.28-14 14s6.28 14 14 14c2.828 0 5.555-.842 7.886-2.435l.04-.028-1.886-2.192-.032.02c-1.794 1.155-3.872 1.765-6.008 1.765-6.137 0-11.13-4.993-11.13-11.13s4.993-11.13 11.13-11.13 11.13 4.993 11.13 11.13c0 .795-.089 1.6-.262 2.392-.352 1.445-1.364 1.887-2.123 1.829-.764-.062-1.658-.606-1.664-1.938v-1.086-1.197c0-3.905-3.176-7.081-7.081-7.081s-7.081 3.176-7.081 7.081 3.176 7.081 7.081 7.081c1.897 0 3.676-.741 5.017-2.09.78 1.214 2.051 1.975 3.498 2.091.124.01.251.015.376.015 1.019 0 2.028-.341 2.842-.958.839-.638 1.466-1.559 1.812-2.666.055-.179.157-.588.157-.591l.003-.015c.204-.888.295-1.773.295-2.867 0-7.72-6.28-14-14-14" fill="#ff9e00" fill-rule="nonzero"/></g></svg>