<svg xmlns="http://www.w3.org/2000/svg" viewBox="0 0 133 28"><g fill-rule="evenodd" stroke-linejoin="round" stroke-miterlimit="1.414" clip-rule="evenodd" fill="#fff"><path d="M38.361 15.293v5.316h-2.609V7.84h2.609v4.942h6.429V7.84h2.609v12.769H44.79v-5.316zM56.46 7.512a6.716 6.716 0 0 1 6.712 6.712 6.716 6.716 0 0 1-6.712 6.713 6.715 6.715 0 0 1-6.712-6.713 6.715 6.715 0 0 1 6.712-6.712zm0 2.608a4.106 4.106 0 0 1 4.104 4.104 4.106 4.106 0 0 1-4.104 4.105 4.106 4.106 0 0 1-4.105-4.105 4.106 4.106 0 0 1 4.105-4.104zM73.108 20.609H65.52V7.84h7.087a3.49 3.49 0 0 1 3.484 3.49c0 1.104-.46 1.823-1.014 2.44 1.119.65 1.716 1.776 1.716 3.034 0 2.034-1.651 3.805-3.685 3.805zm-.529-5.393h-4.473v2.882h4.473a1.441 1.441 0 0 0 0-2.882zm-.372-4.865h-4.101v2.409h4.101a1.205 1.205 0 1 0 0-2.409zM85.219 7.512a6.716 6.716 0 0 1 6.712 6.712 6.716 6.716 0 0 1-6.712 6.713 6.715 6.715 0 0 1-6.712-6.713 6.715 6.715 0 0 1 6.712-6.712zm0 2.608a4.106 4.106 0 0 1 4.104 4.104 4.106 4.106 0 0 1-4.104 4.105 4.106 4.106 0 0 1-4.105-4.105 4.106 4.106 0 0 1 4.105-4.104zM106.139 18.159a6.773 6.773 0 0 1-5.473 2.778 6.716 6.716 0 0 1-6.712-6.713 6.716 6.716 0 0 1 6.712-6.712c2.039 0 3.903.912 5.134 2.349l-2.067 1.597c-.751-.822-1.766-1.338-3.067-1.338-2.265 0-4.047 1.839-4.047 4.104 0 2.266 1.782 4.105 4.047 4.105 1.487 0 2.639-.684 3.384-1.731zM118.623 10.351h-4.411v10.258h-2.653V10.351h-4.411V7.84h11.475zM122.692 20.609h-2.167V7.84h2.608v8.525l7.41-8.525h2.167v12.769h-2.609v-8.348z"/><path fill="#ff9e00" fill-rule="nonzero" d="M18.211 14c0 2.322-1.889 4.211-4.211 4.211S9.789 16.322 9.789 14 11.678 9.789 14 9.789s4.211 1.889 4.211 4.211M14 0C6.28 0 0 6.28 0 14s6.28 14 14 14a13.92 13.92 0 0 0 7.886-2.435l.04-.028-1.886-2.192-.032.02A11.077 11.077 0 0 1 14 25.13C7.863 25.13 2.87 20.137 2.87 14S7.863 2.87 14 2.87 25.13 7.863 25.13 14c0 .795-.089 1.6-.262 2.392-.352 1.445-1.364 1.887-2.123 1.829-.764-.062-1.658-.606-1.664-1.938V14c0-3.905-3.176-7.081-7.081-7.081S6.919 10.095 6.919 14s3.176 7.081 7.081 7.081a7.022 7.022 0 0 0 5.017-2.09 4.55 4.55 0 0 0 3.498 2.091 4.733 4.733 0 0 0 3.218-.943c.839-.638 1.466-1.559 1.812-2.666.055-.179.157-.588.157-.591l.003-.015c.204-.888.295-1.773.295-2.867 0-7.72-6.28-14-14-14"/></g></svg>
