<svg xmlns="http://www.w3.org/2000/svg" viewBox="0 0 140 28"><g fill-rule="evenodd" stroke-linejoin="round" stroke-miterlimit="1.414" clip-rule="evenodd" fill="#fff"><path d="M109.935 7.84h2.609v10.257h6.065V7.84h2.609v10.257h1.616v5.372h-2.608v-2.861h-10.291zM38.361 10.35v10.258h-2.609V7.84h11.647v12.768H44.79V10.35zM52.465 20.608h-2.167V7.84h2.609v8.524l7.409-8.524h2.167v12.768h-2.608v-8.347zM75.86 10.35h-4.411v10.258h-2.653V10.35h-4.411V7.84H75.86zM83.118 7.512a6.715 6.715 0 0 1 6.713 6.712 6.716 6.716 0 0 1-6.713 6.712 6.716 6.716 0 0 1-6.712-6.712 6.715 6.715 0 0 1 6.712-6.712zm0 2.607a4.106 4.106 0 0 1 4.105 4.105 4.106 4.106 0 0 1-4.105 4.104 4.106 4.106 0 0 1-4.104-4.104 4.106 4.106 0 0 1 4.104-4.105zM92.229 7.84h2.167l5.236 6.861 5.237-6.861h2.167v12.768h-2.609v-8.097l-4.795 6.404-4.795-6.404v8.097h-2.608zM139.561 20.608h-2.608V7.84h2.608zm-11.721-8.893h3.266c2.383 0 4.317 2.053 4.317 4.435 0 2.383-1.934 4.458-4.317 4.458h-5.875V7.84h2.609zm2.955 2.509h-1.087l-.097.002h-1.794v3.871h2.978c1.069 0 1.858-.868 1.858-1.937 0-1.068-.789-1.936-1.858-1.936z"/><path fill="#ff9e00" fill-rule="nonzero" d="M18.211 14c0 2.322-1.889 4.211-4.211 4.211S9.789 16.322 9.789 14 11.678 9.789 14 9.789s4.211 1.889 4.211 4.211M14 0C6.28 0 0 6.28 0 14s6.28 14 14 14a13.92 13.92 0 0 0 7.886-2.435l.04-.028-1.886-2.192-.032.02A11.077 11.077 0 0 1 14 25.13C7.863 25.13 2.87 20.137 2.87 14S7.863 2.87 14 2.87 25.13 7.863 25.13 14c0 .795-.089 1.6-.262 2.392-.352 1.445-1.364 1.887-2.123 1.829-.764-.062-1.658-.606-1.664-1.938V14c0-3.905-3.176-7.081-7.081-7.081S6.919 10.095 6.919 14s3.176 7.081 7.081 7.081a7.022 7.022 0 0 0 5.017-2.09 4.55 4.55 0 0 0 3.498 2.091 4.733 4.733 0 0 0 3.218-.943c.839-.638 1.466-1.559 1.812-2.666.055-.179.157-.588.157-.591l.003-.015c.204-.888.295-1.773.295-2.867 0-7.72-6.28-14-14-14"/></g></svg>
