<svg xmlns="http://www.w3.org/2000/svg" viewBox="0 0 93 28"><g fill-rule="evenodd" stroke-linejoin="round" stroke-miterlimit="1.414" clip-rule="evenodd" fill="#fff"><path d="M35.752 7.84h2.609v5.196h2.877l3.004-5.196h3.233l-3.641 6.282 4.205 6.487h-3.233l-3.275-5.062h-3.17v5.062h-2.609zm16.221 12.769h-2.167V7.84h2.609v8.525l7.409-8.525h2.167v12.769h-2.609v-8.348zm15.526-5.316v5.316H64.89V7.84h2.609v4.942h6.429V7.84h2.609v12.769h-2.609v-5.316zm18.098-7.781a6.715 6.715 0 0 1 6.712 6.712 6.715 6.715 0 0 1-6.712 6.713 6.716 6.716 0 0 1-6.712-6.713 6.716 6.716 0 0 1 6.712-6.712zm0 2.608a4.106 4.106 0 0 1 4.105 4.104 4.106 4.106 0 0 1-4.105 4.105 4.106 4.106 0 0 1-4.104-4.105 4.106 4.106 0 0 1 4.104-4.104z"/><path fill="#ff9e00" fill-rule="nonzero" d="M18.211 14c0 2.322-1.889 4.211-4.211 4.211S9.789 16.322 9.789 14 11.678 9.789 14 9.789s4.211 1.889 4.211 4.211M14 0C6.28 0 0 6.28 0 14s6.28 14 14 14a13.92 13.92 0 0 0 7.886-2.435l.04-.028-1.886-2.192-.032.02A11.077 11.077 0 0 1 14 25.13C7.863 25.13 2.87 20.137 2.87 14S7.863 2.87 14 2.87 25.13 7.863 25.13 14c0 .795-.089 1.6-.262 2.392-.352 1.445-1.364 1.887-2.123 1.829-.764-.062-1.658-.606-1.664-1.938V14c0-3.905-3.176-7.081-7.081-7.081S6.919 10.095 6.919 14s3.176 7.081 7.081 7.081a7.022 7.022 0 0 0 5.017-2.09 4.55 4.55 0 0 0 3.498 2.091 4.733 4.733 0 0 0 3.218-.943c.839-.638 1.466-1.559 1.812-2.666.055-.179.157-.588.157-.591l.003-.015c.204-.888.295-1.773.295-2.867 0-7.72-6.28-14-14-14"/></g></svg>
