<?xml version="1.0" encoding="UTF-8"?>
<svg width="48px" height="45px" viewBox="0 0 48 45" version="1.1" xmlns="http://www.w3.org/2000/svg" xmlns:xlink="http://www.w3.org/1999/xlink">
    <!-- Generator: Sketch 52.6 (67491) - http://www.bohemiancoding.com/sketch -->
    <title>icon-menu-2</title>
    <desc>Created with Sketch.</desc>
    <g id="blackLatte_design" stroke="none" stroke-width="1" fill="none" fill-rule="evenodd">
        <g transform="translate(-442.000000, -222.000000)" fill="#FF0000" id="header">
            <g>
                <g id="header_content" transform="translate(160.000000, 40.000000)">
                    <g id="mainMenu" transform="translate(0.000000, 160.000000)">
                        <g id="2" transform="translate(282.000000, 20.000000)">
                            <g id="icon/icon-menu-2">
                                <g id="flaticon1548753571-svg" transform="translate(0.000000, 2.000000)">
                                    <path d="M9.99023437,14.5484619 C11.0050049,14.786499 11.9959717,15.1171875 12.9503174,15.5357666 C13.2535401,15.658081 13.5545654,15.7756348 13.8511963,15.892456 C14.4111328,16.1052246 14.9710693,16.333374 15.5375977,16.5604248 C16.682373,17.0236817 17.8656006,17.5019531 19.0319824,17.8469239 C20.6550293,18.2563477 22.3264161,18.442749 24,18.4013672 C25.6735839,18.4431152 27.3449708,18.2563477 28.9680176,17.8469239 C30.1351318,17.5019531 31.3183594,17.0236817 32.4631348,16.5604248 C33.0230713,16.333374 33.5881348,16.1052246 34.1495362,15.892456 C34.4465333,15.7796631 34.7471924,15.658081 35.0504151,15.5357666 C36.0047607,15.1168213 36.9957276,14.7868652 38.010498,14.5491943 C34.4798584,7.60144041 34.552002,2.14306641 34.7790527,0.00146484375 L13.2209473,0.00146484375 C13.447998,2.14306641 13.5241699,7.60144041 9.99023437,14.5484619 Z M22.4000244,10.4014893 C22.8416748,10.4014893 23.1998291,10.7596435 23.1998291,11.201294 C23.1998291,11.6433105 23.5583496,12.0014648 24,12.0014648 C24.4416504,12.0014648 24.8001709,11.6433105 24.8001709,11.201294 C24.8001709,10.7596435 25.1583252,10.4014893 25.5999756,10.4014893 C26.0419922,10.4014893 26.4001464,10.7596435 26.4001464,11.201294 C26.4001464,12.5266114 25.3253174,13.6014404 24,13.6014404 C22.6746826,13.6014404 21.5998536,12.5266114 21.5998536,11.201294 C21.5998536,10.7596435 21.9580078,10.4014893 22.4000244,10.4014893 Z" id="Shape" fill-rule="nonzero"></path>
                                    <path d="M38.8190917,16.0524902 C37.7259521,16.2381592 36.6610107,16.5629883 35.6502685,17.0189209 C35.3360596,17.1459961 35.0247803,17.2716065 34.7167969,17.3884277 C34.1663818,17.5982666 33.6159667,17.8205567 33.0633545,18.0435791 C31.8830567,18.5236817 30.663208,19.0147705 29.4217529,19.3813477 C27.6540527,19.8361817 25.8317871,20.0449219 24.0073242,20.0013427 L23.9926758,20.0013427 C22.1678467,20.0449219 20.345581,19.8361817 18.5775146,19.3813477 C17.336792,19.0147705 16.1169433,18.5214844 14.9366455,18.0435791 C14.3840332,17.8205567 13.8336182,17.5982666 13.2832031,17.3884277 C12.9752198,17.2716065 12.6639404,17.1485596 12.3504638,17.0189209 C11.3389893,16.5633545 10.2736817,16.2385254 9.18017578,16.0524902 C9.11279297,16.1707763 9.05456541,16.2854004 8.98461919,16.404419 C7.99401853,18.2354737 7.42236328,20.2639161 7.31103516,22.3428955 C9.77673337,22.2070312 16.2121583,22.0773926 19.6113281,24.1157227 C20.5030518,24.6478271 21.3079834,25.1070557 22.0023193,25.4805908 C22.152832,25.5604248 22.2982177,25.6333008 22.4318848,25.6995849 L22.5655518,25.7662354 C23.4678955,26.2181396 24.5306396,26.2181396 25.4326172,25.7662354 C25.520874,25.7237549 25.5926513,25.6860352 25.6688232,25.6468506 L25.8552246,25.5509033 L25.9127197,25.5197754 C26.5982666,25.1579589 27.4248047,24.6892089 28.3927002,24.1131592 C31.7054443,22.126831 37.8504638,22.1854248 40.6904297,22.3374023 C40.5780029,20.2591552 40.005249,18.2314453 39.0142823,16.4014893 C38.9447021,16.2854004 38.8864746,16.1707763 38.8190917,16.0524902 Z" id="Path"></path>
                                    <path d="M20.8608398,26.6766357 C20.2342529,26.3323974 19.5512695,25.942749 18.7895508,25.4886474 C16.0777588,23.8619385 10.5494385,23.7403565 7.22973638,23.9476318 C7.10961919,32.3851318 11.0753174,42.5035401 12.0249023,44.8011474 L23.1998291,44.8011474 L23.1998291,33.6013183 C23.203125,33.5786133 23.2078857,33.5562744 23.2137451,33.5339355 C22.6322021,31.2092286 21.8514404,28.9387207 20.8798828,26.7476807 C20.8681641,26.7213135 20.8696289,26.699707 20.8608398,26.6766357 Z" id="Path"></path>
                                    <path d="M35.9750977,44.8011474 C36.9246826,42.5028076 40.8889161,32.3814697 40.7687989,23.9454346 C38.4089355,23.8139648 32.2393799,23.6707763 29.2111817,25.4875489 C28.4293213,25.9544677 27.7386474,26.3510742 27.1391602,26.6773682 C27.1303711,26.7004395 27.1318359,26.7246094 27.1208496,26.7476807 C26.1489258,28.9387207 25.3681641,31.2092286 24.7862549,33.5339355 C24.7921143,33.5562744 24.796875,33.5786133 24.8001709,33.6013183 L24.8001709,44.8011474 L35.9750977,44.8011474 Z" id="Path"></path>
                                    <path d="M25.0239258,27.5932617 C24.3493652,27.7452393 23.6495362,27.7452393 22.9753417,27.5932617 C23.2639161,28.3253174 23.623169,29.3060303 24,30.4918213 C24.3760987,29.3045654 24.7353516,28.3212891 25.0239258,27.5932617 Z" id="Path"></path>
                                    <path d="M4.00012209,8.80114744 C3.99938963,9.11389162 4.18029787,9.39807131 4.46411138,9.52917478 C4.56958012,9.57678225 4.68420413,9.60131831 4.79992678,9.60131831 C4.9870605,9.60168459 5.16796875,9.536499 5.31188963,9.41748047 L10.1121826,5.41735837 C10.2952881,5.26538081 10.4014893,5.03942869 10.4014893,4.80139162 C10.4014893,4.56298828 10.2952881,4.33740234 10.1121826,4.18542478 L5.31188963,0.185302688 C5.07348638,-0.0135497812 4.74133303,-0.05603025 4.46008303,0.0758056875 C4.17883303,0.208007813 3.99938963,0.490722656 4.00012209,0.801269531 L4.00012209,2.40124509 L0.800170875,2.40124509 C0.35815425,2.40124509 0,2.75939944 0,3.20141606 L0,6.40136719 C0,6.84301762 0.35815425,7.20117187 0.800170875,7.20117187 L4.00012209,7.20117187 L4.00012209,8.80114744 Z" id="Path"></path>
                                    <path d="M47.1998291,2.40124509 L43.9998779,2.40124509 L43.9998779,0.801269531 C44.0006104,0.490722656 43.821167,0.208007813 43.539917,0.0758056875 C43.258667,-0.05603025 42.9265136,-0.0135497812 42.6881104,0.185302688 L37.8878174,4.18542478 C37.7047119,4.33740234 37.5985107,4.56298828 37.5985107,4.80139162 C37.5985107,5.03942869 37.7047119,5.26538081 37.8878174,5.41735837 L42.6881104,9.41748047 C42.8320313,9.536499 43.0129395,9.60168459 43.2000732,9.60131831 C43.3157959,9.60131831 43.4304199,9.57678225 43.5358886,9.52917478 C43.8197021,9.39807131 44.0006104,9.11389162 43.9998779,8.80114744 L43.9998779,7.20117187 L47.1998291,7.20117187 C47.6418458,7.20117187 48,6.84301762 48,6.40136719 L48,3.20141606 C48,2.75939944 47.6418458,2.40124509 47.1998291,2.40124509 Z" id="Path"></path>
                                </g>
                            </g>
                        </g>
                    </g>
                </g>
            </g>
        </g>
    </g>
</svg>