<?xml version="1.0" encoding="UTF-8"?>
<svg width="48px" height="28px" viewBox="0 0 48 28" version="1.1" xmlns="http://www.w3.org/2000/svg" xmlns:xlink="http://www.w3.org/1999/xlink">
    <!-- Generator: Sketch 52.6 (67491) - http://www.bohemiancoding.com/sketch -->
    <title>icon-menu-3</title>
    <desc>Created with Sketch.</desc>
    <g id="blackLatte_design" stroke="none" stroke-width="1" fill="none" fill-rule="evenodd">
        <g transform="translate(-730.000000, -230.000000)" fill="#FF0000" id="header">
            <g>
                <g id="header_content" transform="translate(160.000000, 40.000000)">
                    <g id="mainMenu" transform="translate(0.000000, 160.000000)">
                        <g id="3" transform="translate(570.000000, 20.000000)">
                            <g id="icon/icon-menu-3">
                                <g id="flaticon1548753615-svg" transform="translate(0.000000, 10.000000)">
                                    <path d="M47.0845509,9.47132934 C46.6292695,9.47132934 46.2601198,9.93667066 46.2601198,10.5093174 C46.2601198,12.098012 46.2601198,15.1177006 46.2601198,16.7054371 C46.2601198,17.2780838 46.6293653,17.7424671 47.085509,17.7424671 C47.5407904,17.7424671 47.9083114,17.277988 47.9083114,16.7054371 C47.9083114,15.1186587 47.9083114,12.0988743 47.9083114,10.5083593 C47.9083114,9.93667066 47.5398323,9.47132934 47.0845509,9.47132934 Z" id="Path"></path>
                                    <path d="M0.82548503,9.47132934 C0.370203593,9.47132934 0,9.93667066 0,10.5093174 C0,12.0998323 0,15.1149222 0.000958083832,16.7036168 C0.000958083832,17.2762635 0.370203593,17.7406467 0.82548503,17.7425629 C1.28086228,17.7425629 1.6491497,17.2780838 1.6491497,16.7055329 C1.6491497,15.1177964 1.6491497,12.0989701 1.65010778,10.5084551 C1.65001198,9.93667066 1.28086228,9.47132934 0.82548503,9.47132934 Z" id="Path"></path>
                                    <path d="M10.9765749,0.0777964072 C9.45762874,0.0777964072 8.22534132,1.47123353 8.22534132,3.18907784 C8.22534132,8.39664671 8.2262994,18.8189701 8.22725749,24.0246228 C8.22725749,25.7424671 9.45762874,27.1358084 10.9766707,27.1358084 C12.4957126,27.1358084 13.7279042,25.741509 13.7279042,24.0246228 C13.7279042,21.9823713 13.7279042,19.1340838 13.7279042,16.1161198 C15.3138204,16.1161198 29.5087904,16.1161198 33.7397844,16.1161198 C33.7397844,19.1350419 33.7397844,21.9823713 33.7397844,24.0255808 C33.7397844,25.7424671 34.971976,27.1358084 36.4911138,27.1358084 C38.0100599,27.1358084 39.2405269,25.741509 39.2405269,24.0246228 C39.2405269,18.8170539 39.2405269,8.39473054 39.2405269,3.18907784 C39.2405269,1.47037126 38.0099641,0.0777964072 36.4911138,0.0777964072 C34.9720719,0.0777964072 33.7397844,1.46941317 33.7397844,3.18907784 C33.7397844,5.23123353 33.7397844,8.07865868 33.7397844,11.0973892 C29.5071617,11.0973892 15.3138204,11.0973892 13.7279042,11.0973892 C13.7279042,8.07865868 13.7279042,5.23113772 13.7279042,3.18811976 C13.7279042,1.46950898 12.4965749,0.0777964072 10.9765749,0.0777964072 Z" id="Path"></path>
                                    <path d="M42.884024,4.23358084 C42.7941557,4.23358084 42.7053413,4.23358084 42.6147066,4.23358084 C41.4702754,4.23358084 40.5413174,5.15985629 40.5413174,6.30591617 C40.5413174,9.91281437 40.5413174,17.3008862 40.5413174,20.9076886 C40.5413174,22.0528862 41.4701796,22.9819401 42.6153772,22.9819401 C42.7052455,22.9819401 42.795976,22.9819401 42.8847904,22.9819401 C44.029988,22.9819401 44.9588503,22.0556647 44.9588503,20.909509 C44.9588503,17.3035689 44.9588503,9.91463473 44.9580838,6.30764072 C44.9590419,5.16167665 44.0292216,4.23358084 42.884024,4.23358084 Z" id="Path"></path>
                                    <path d="M4.9931497,4.23358084 C4.90337725,4.23358084 4.81264671,4.23358084 4.72287425,4.23358084 C3.57767665,4.23358084 2.64958084,5.15985629 2.64958084,6.30591617 C2.64958084,9.91281437 2.64958084,17.3008862 2.64958084,20.9076886 C2.64958084,22.0538443 3.57767665,22.9819401 4.72287425,22.9819401 C4.81264671,22.9819401 4.90337725,22.9819401 4.99219162,22.9819401 C6.13738922,22.9819401 7.06548503,22.0556647 7.06548503,20.909509 C7.06548503,17.3035689 7.06548503,9.91463473 7.06548503,6.30764072 C7.06644311,5.16167665 6.13834731,4.23358084 4.9931497,4.23358084 Z" id="Path"></path>
                                </g>
                            </g>
                        </g>
                    </g>
                </g>
            </g>
        </g>
    </g>
</svg>