<?xml version="1.0" encoding="UTF-8"?>
<svg width="49px" height="49px" viewBox="0 0 49 49" version="1.1" xmlns="http://www.w3.org/2000/svg" xmlns:xlink="http://www.w3.org/1999/xlink">
    <!-- Generator: Sketch 52.6 (67491) - http://www.bohemiancoding.com/sketch -->
    <title>icon-menu-1</title>
    <desc>Created with Sketch.</desc>
    <g id="blackLatte_design" stroke="none" stroke-width="1" fill="none" fill-rule="evenodd">
        <g transform="translate(-189.000000, -219.000000)" id="header">
            <g>
                <g id="header_content" transform="translate(160.000000, 40.000000)">
                    <g id="mainMenu" transform="translate(0.000000, 160.000000)">
                        <g id="1" transform="translate(30.000000, 20.000000)">
                            <g id="icon-menu-1">
                                <g id="Group-2">
                                    <g id="flaticon1548752454-svg" transform="translate(12.757143, 8.000000)" fill="#FF0000">
                                        <path d="M11.5821429,16.1904762 L11.5821429,24.7619048 C11.5821429,25.8142857 12.4469429,26.6666667 13.5125,26.6666667 C14.5790223,26.6666667 15.4428571,25.8142857 15.4428571,24.7619048 L15.4428571,16.1904762 L11.5821429,16.1904762 Z" id="Path"></path>
                                        <path d="M13.7692375,0.336190476 C12.9189152,-0.406666667 11.5821429,0.16 11.5821429,1.27904762 L11.5821429,15.2380952 L14.1562741,15.2380952 C14.8666455,15.2380952 15.4428571,14.6695238 15.4428571,13.9685714 L15.4428571,4.26857143 C15.4428571,2.56095238 14.7913616,1.22761905 13.7692375,0.336190476 Z" id="Path"></path>
                                        <path d="M7.72142857,8.0952381 C7.72142857,7.9352381 7.70984643,7.77619048 7.70984643,7.61904762 C7.70984643,5.77428571 6.75625,0 6.75625,0 L5.79107143,0 L5.79107143,8.57142857 L4.78149464,8.57142857 L4.38287589,0 L3.35206518,0 L3.33951786,0 L2.94089911,8.57142857 L1.93035714,8.57142857 L1.93035714,0 L0.965178571,0 C0.965178571,0 0.0115821429,5.77428571 0.0115821429,7.61904762 C0.0115821429,7.77619048 0,7.9352381 0,8.0952381 C0,9.88952381 0.478728571,11.5 1.23928929,12.6314286 C2.47857857,14.3447619 2.63204196,15.6361905 2.53648929,17.1028571 L1.91684464,24.552381 C1.91684464,25.72 2.78647054,26.6666667 3.85974911,26.6666667 C4.93302768,26.6666667 5.80265357,25.72 5.80265357,24.552381 L5.18397411,17.1028571 C5.08842143,15.6361905 5.24188482,14.3438095 6.48117411,12.6314286 C7.2427,11.5 7.72142857,9.88952381 7.72142857,8.0952381 Z" id="Path"></path>
                                    </g>
                                    <ellipse id="Oval" stroke="#FF0000" stroke-width="2" fill-rule="nonzero" cx="21.4857143" cy="21.3333333" rx="21.4857143" ry="21.3333333"></ellipse>
                                    <g id="Group" transform="translate(24.500000, 35.333333)">
                                        <rect id="Rectangle" fill="#FF0000" fill-rule="nonzero" x="0" y="0.666666667" width="23.5" height="12" rx="2.66666667"></rect>
                                        <path d="M4.09348493,7.22916667 L4.70393415,6.45442708 L6.14055525,4.90494792 L7.7194615,4.90494792 L5.68157087,7.11523438 L7.84338728,10 L6.22776228,10 L4.74983259,7.93554688 L4.14856306,8.4140625 L4.14856306,10 L2.74866071,10 L2.74866071,2.90885417 L4.14856306,2.90885417 L4.14856306,6.07161458 L4.07512556,7.22916667 L4.09348493,7.22916667 Z M10.4733677,10.0911458 C8.87609413,10.0911458 8.07746931,9.22071183 8.07746931,7.47981771 C8.07746931,6.61392796 8.29471974,5.95236774 8.72922712,5.49511719 C9.1637345,5.03786664 9.78641708,4.80924479 10.5972935,4.80924479 C11.1909163,4.80924479 11.7233328,4.92469503 12.1945592,5.15559896 L11.7814732,6.23111979 C11.5611596,6.14301171 11.3561486,6.07085532 11.1664342,6.01464844 C10.9767197,5.95844156 10.787008,5.93033854 10.5972935,5.93033854 C9.86903468,5.93033854 9.50491071,6.44378827 9.50491071,7.47070312 C9.50491071,8.46723589 9.86903468,8.96549479 10.5972935,8.96549479 C10.8665657,8.96549479 11.1159447,8.92979636 11.3454381,8.85839844 C11.5749314,8.78700051 11.8044213,8.67534798 12.0339146,8.5234375 L12.0339146,9.71289062 C11.8074812,9.85568648 11.5787563,9.95442681 11.347733,10.0091146 C11.1167097,10.0638024 10.8252575,10.0911458 10.4733677,10.0911458 Z M16.4814732,10 L16.2106724,9.30729167 L16.1739537,9.30729167 C15.9383405,9.601998 15.6958462,9.80631453 15.4464634,9.9202474 C15.1970807,10.0341803 14.87197,10.0911458 14.4711217,10.0911458 C13.978476,10.0911458 13.590638,9.95139029 13.3075963,9.671875 C13.0245545,9.39235971 12.8830357,8.99436022 12.8830357,8.47786458 C12.8830357,7.93706327 13.0735123,7.53830424 13.4544713,7.28157552 C13.8354302,7.02484681 14.4099199,6.88281264 15.1779576,6.85546875 L16.0683873,6.828125 L16.0683873,6.60481771 C16.0683873,6.08832207 15.802179,5.83007812 15.2697545,5.83007812 C14.8597264,5.83007812 14.3777976,5.95312377 13.8239537,6.19921875 L13.3603795,5.26041667 C13.9509423,4.95355749 14.6057535,4.80013021 15.3248326,4.80013021 C16.0133126,4.80013021 16.5411393,4.94900025 16.9083287,5.24674479 C17.275518,5.54448934 17.4591099,5.99717578 17.4591099,6.60481771 L17.4591099,10 L16.4814732,10 Z M16.0683873,7.63932292 L15.5267857,7.65755208 C15.1198175,7.66970492 14.8168909,7.74262086 14.6179967,7.87630208 C14.4191024,8.00998331 14.3196568,8.2135403 14.3196568,8.48697917 C14.3196568,8.87890821 14.5460868,9.07486979 14.9989537,9.07486979 C15.3233043,9.07486979 15.5826278,8.98220579 15.7769322,8.796875 C15.9712366,8.61154421 16.0683873,8.36545292 16.0683873,8.05859375 L16.0683873,7.63932292 Z M20.3002232,10 L18.9003209,10 L18.9003209,2.90885417 L20.3002232,2.90885417 L20.3002232,10 Z" id="kcal" fill="#FFFFFF"></path>
                                    </g>
                                </g>
                            </g>
                        </g>
                    </g>
                </g>
            </g>
        </g>
    </g>
</svg>