<?xml version="1.0" encoding="UTF-8"?>
<svg width="34px" height="48px" viewBox="0 0 34 48" version="1.1" xmlns="http://www.w3.org/2000/svg" xmlns:xlink="http://www.w3.org/1999/xlink">
    <!-- Generator: Sketch 52.6 (67491) - http://www.bohemiancoding.com/sketch -->
    <title>icon-menu-4</title>
    <desc>Created with Sketch.</desc>
    <g id="blackLatte_design" stroke="none" stroke-width="1" fill="none" fill-rule="evenodd">
        <g transform="translate(-1095.000000, -220.000000)" fill="#FF0000" id="header">
            <g>
                <g id="header_content" transform="translate(160.000000, 40.000000)">
                    <g id="mainMenu" transform="translate(0.000000, 160.000000)">
                        <g id="4" transform="translate(870.000000, 20.000000)">
                            <g id="icon-menu-4" transform="translate(64.000000, 0.000000)">
                                <g id="flaticon1548753729-svg" transform="translate(17.473684, 24.000000) scale(-1, 1) translate(-17.473684, -24.000000) translate(0.473684, 0.000000)">
                                    <path d="M20.8351579,47.2619368 C24.7807579,43.7396211 35.1175579,38.2318737 33.2442947,24.5010947 C32.7886737,19.6690105 31.7826947,17.0501053 30.8297684,13.6863158 C29.076,7.49797895 20.2068632,-3.46711579 10.2034105,1.07141053 C0.199957895,5.60854737 -4.3992,30.3922105 5.72526316,32.3261053 C7.08303158,32.5236632 10.1244632,27.4777263 10.4645053,25.8271579 C10.8044211,24.1767158 12.5081684,25.4407579 14.1579789,22.0039579 C15.8070316,18.5664 14.3195368,15.6319579 15.4206316,13.3907368 C16.5217263,11.1472421 16.9930105,9.46787368 20.2911158,9.94951579 C22.4919158,10.4996211 21.8840842,13.4791579 22.3355368,15.1304842 C22.7854737,16.7810526 26.2826526,18.6357474 26.1970105,19.8490105 C26.1114947,21.0584842 24.6423158,20.7339789 24.6762947,22.0385684 C24.6762947,22.5718737 25.4285053,22.9546105 25.4551579,23.5733053 C25.4801684,24.1927579 24.6232421,24.6692211 24.6232421,24.6692211 C24.6232421,24.6692211 25.3842947,25.1472 25.1823158,25.8419368 C24.9817263,26.5380632 24.0347368,26.4834947 23.6747368,26.6796632 C23.5066105,26.7726316 25.0288421,29.1296842 23.9874947,30.4098947 C22.7161263,31.9057263 16.3595368,30.3303158 15.1352842,30.8067789 C12.8328,31.7007158 10.9285895,34.8041684 12.1956632,36.2730947 C13.4641263,37.7407579 18.9874105,37.8881684 18.9784421,46.4137263 C18.9781895,48.1999579 19.7052632,48.2693053 20.8351579,47.2619368" id="Path"></path>
                                </g>
                            </g>
                        </g>
                    </g>
                </g>
            </g>
        </g>
    </g>
</svg>