<?xml version="1.0" encoding="UTF-8"?>
<svg width="16px" height="16px" viewBox="0 0 16 16" version="1.1" xmlns="http://www.w3.org/2000/svg" xmlns:xlink="http://www.w3.org/1999/xlink">
    <!-- Generator: Sketch 52.6 (67491) - http://www.bohemiancoding.com/sketch -->
    <title>icon-search</title>
    <desc>Created with Sketch.</desc>
    <g id="blackLatte_design" stroke="none" stroke-width="1" fill="none" fill-rule="evenodd">
        <g transform="translate(-1251.000000, -121.000000)" fill="#DF2828" fill-rule="nonzero" id="header">
            <g>
                <g id="header_content" transform="translate(160.000000, 40.000000)">
                    <g id="logo-+-search" transform="translate(0.000000, 51.000000)">
                        <g id="search" transform="translate(863.000000, 18.000000)">
                            <g id="icon-search" transform="translate(228.000000, 12.000000)">
                                <path d="M15.5656414,13.6799363 L12.099251,10.2136096 C12.0808287,10.1951873 12.0592191,10.1823108 12.0399681,10.1651633 C12.7220398,9.13051793 13.1201275,7.89201594 13.1201275,6.56012749 C13.1201275,2.93705179 10.1830757,0 6.56006375,0 C2.93705179,0 0,2.93705179 0,6.56006375 C0,10.183012 2.93698805,13.1201275 6.56,13.1201275 C7.89195219,13.1201275 9.13039044,12.7220398 10.1650359,12.0399681 C10.1821833,12.0591554 10.194996,12.0807649 10.2134183,12.0991873 L13.6798725,15.5656414 C14.2006056,16.0863108 15.0448446,16.0863108 15.5656414,15.5656414 C16.0863108,15.0449084 16.0863108,14.2006693 15.5656414,13.6799363 Z M6.56006375,10.8459602 C4.19295618,10.8459602 2.27410359,8.92710757 2.27410359,6.56006375 C2.27410359,4.19295618 4.19301992,2.27410359 6.56006375,2.27410359 C8.92704382,2.27410359 10.8459602,4.19301992 10.8459602,6.56006375 C10.8459602,8.92710757 8.92704382,10.8459602 6.56006375,10.8459602 Z" id="Shape"></path>
                            </g>
                        </g>
                    </g>
                </g>
            </g>
        </g>
    </g>
</svg>