<svg xmlns="http://www.w3.org/2000/svg" viewBox="0 0 137.88 25.83"><defs><style>.cls-1,.cls-2{fill:#333;}.cls-1{fill-rule:evenodd;}</style></defs><title>Asset 3</title><g id="Layer_2" data-name="Layer 2"><g id="Layer_1-2" data-name="Layer 1"><path class="cls-1" d="M5.91,23A8.47,8.47,0,0,1,0,14.88,8.21,8.21,0,0,1,3.51,8.36,13,13,0,0,0,8.47,0a13,13,0,0,1,3.64,12.28,5.23,5.23,0,0,0,3.51-5.42s3.25,4.45,2.18,9.72A13.75,13.75,0,0,1,13.91,24a13.5,13.5,0,0,1-7.19-9.42A8.14,8.14,0,0,0,5.91,23Z"/><path class="cls-2" d="M28,7.63h2l4.84,6.24,4.59-6.24h2v12.6H39.21V11L34.84,16.9h-.08L30.22,11v9.18H28Z"/><path class="cls-2" d="M44.11,20.23V7.63h2.24V17l7.28-9.38h2.24v12.6H53.63V10.85l-7.28,9.38Z"/><path class="cls-2" d="M58.67,7.63h2.24V9.11a5.88,5.88,0,0,1,4.28-1.76C68.77,7.35,71,10,71,13.73a6.41,6.41,0,0,1-6.55,6.78,6.7,6.7,0,0,1-3.56-.87v6.19H58.67Zm2.24,3.56v6.24a5.59,5.59,0,0,0,3.36,1,4.25,4.25,0,0,0,4.37-4.59c0-2.55-1.48-4.37-4.09-4.37A4.79,4.79,0,0,0,60.91,11.18Z"/><path class="cls-2" d="M72.22,7.63H83.7V9.87H79.08V20.23H76.84V9.87H72.22Z"/><path class="cls-2" d="M96.35,18.86a7.18,7.18,0,0,1-4.73,1.65c-4.09,0-6.75-2.6-6.75-6.58,0-3.67,2.35-6.58,6.5-6.58a5.63,5.63,0,0,1,5.85,5.77,7.3,7.3,0,0,1-.14,1.51H87.39c.2,2.38,1.93,3.78,4.4,3.78a5.82,5.82,0,0,0,3.86-1.32Zm-9.1-6H94.9a3.34,3.34,0,0,0-3.64-3.36A3.78,3.78,0,0,0,87.25,12.81Z"/><path class="cls-2" d="M110.61,18.41a6.09,6.09,0,0,1-4.84,2.1c-4,0-6.75-2.6-6.75-6.58a6.36,6.36,0,0,1,6.38-6.58,6.82,6.82,0,0,1,5,1.65l-1,1.76a5.08,5.08,0,0,0-3.61-1.32,4.35,4.35,0,0,0-4.31,4.48,4.34,4.34,0,0,0,4.54,4.48,4.78,4.78,0,0,0,3.61-1.62Z"/><path class="cls-2" d="M123.46,18.86a7.18,7.18,0,0,1-4.73,1.65c-4.09,0-6.75-2.6-6.75-6.58,0-3.67,2.35-6.58,6.5-6.58a5.63,5.63,0,0,1,5.85,5.77,7.3,7.3,0,0,1-.14,1.51H114.5c.2,2.38,1.93,3.78,4.4,3.78a5.82,5.82,0,0,0,3.86-1.32Zm-9.1-6H122a3.34,3.34,0,0,0-3.64-3.36A3.78,3.78,0,0,0,114.36,12.81Z"/><path class="cls-2" d="M135.64,14.91h-7v5.32H126.4V7.63h2.24v5.18h7V7.63h2.24v12.6h-2.24Z"/></g></g></svg>